<svg xmlns="http://www.w3.org/2000/svg" xmlns:xlink="http://www.w3.org/1999/xlink" version="1.1" id="Icon" x="0px" y="0px" width="100px" height="100px" viewBox="5.0 -10.0 100.0 135.0" enable-background="new 0 0 100 100" xml:space="preserve">
<g>
	<g>
		<path d="M31.505,85.939c-2.144,0.896-4.617-0.121-5.512-2.266L4.498,32.19c-0.895-2.146,0.12-4.618,2.265-5.513L36.64,14.203    c2.145-0.895,4.617,0.122,5.513,2.266l5.808,13.913l1.122-4.25l-4.464-10.693c-1.463-3.504-5.503-5.165-9.009-3.702L5.733,24.211    c-3.504,1.463-5.165,5.503-3.702,9.009l21.495,51.485c1.463,3.505,5.505,5.163,9.009,3.701l11.42-4.77    c-1.137-0.367-2.17-0.918-3.075-1.611L31.505,85.939z"/>
	</g>
	<g>
		<path d="M40.652,56.375l0.13-0.458c0,0-2.204,0.119-3.819-1.373c-0.683-0.633-1.294-1.578-1.777-2.594    c0.991,1.163,2.811,1.562,4.271,0.95c1.753-0.73,2.581-2.748,1.849-4.5c-0.732-1.752-2.747-2.581-4.5-1.848    c-1.405,0.585-2.38,2.065-2.338,3.531c-0.145-0.488-0.25-0.955-0.308-1.379c1.352-0.936,1.844-2.926,1.192-4.487    c-0.732-1.754-2.746-2.581-4.501-1.849c-1.754,0.731-2.581,2.748-1.849,4.5c0.655,1.568,2.43,2.621,4.054,2.301    c0.262,0.345,0.522,0.757,0.767,1.21c-1.01-1.076-2.761-1.431-4.174-0.84c-1.753,0.732-2.582,2.747-1.85,4.501    c0.732,1.753,2.747,2.581,4.501,1.851c1.449-0.607,2.441-2.164,2.328-3.676c0.359,1.024,0.591,2.104,0.583,3.061    c-0.015,2.199-1.708,3.682-1.708,3.682l0.003-0.001l0.336,0.262C37.566,55.852,40.652,56.375,40.652,56.375"/>
	</g>
	<g>
		<path d="M13.017,33.03c0.946-0.396,1.393-1.48,0.998-2.427c-0.396-0.946-1.481-1.393-2.427-0.998    c-0.757,0.317-1.283,1.115-1.26,1.905c-0.079-0.263-0.135-0.515-0.167-0.744c0.729-0.504,0.995-1.578,0.643-2.419    c-0.396-0.945-1.481-1.392-2.427-0.998c-0.946,0.395-1.392,1.481-0.998,2.427c0.353,0.845,1.311,1.413,2.185,1.241    c0.142,0.187,0.283,0.409,0.414,0.653c-0.544-0.581-1.488-0.771-2.25-0.453c-0.946,0.395-1.393,1.48-0.997,2.426    c0.395,0.945,1.481,1.393,2.426,0.998c0.783-0.327,1.318-1.166,1.256-1.981c0.194,0.552,0.319,1.134,0.315,1.649    c-0.007,1.188-0.921,1.985-0.921,1.985h0.002l0.181,0.142c2.009-1.817,3.673-1.534,3.673-1.534l0.069-0.247    c0,0-1.188,0.063-2.059-0.74c-0.369-0.341-0.699-0.852-0.959-1.4C11.249,33.143,12.229,33.359,13.017,33.03"/>
	</g>
	<g>
		<path d="M94.074,22.804L62.77,14.546c-2.953-0.779-6.004,0.999-6.783,3.951l-3.907,14.812l-1.12,4.25l-9.204,34.884    c-0.777,2.951,1.001,6.005,3.952,6.783l1.151,0.304l4.251,1.122l25.902,6.832c2.95,0.779,6.002-0.998,6.781-3.95l14.232-53.948    C98.805,26.634,97.025,23.583,94.074,22.804 M58.232,21.798c0.088-0.753,0.4-1.394,1.004-1.881    c0.759-0.611,1.596-1.094,2.477-1.497c0.51-0.233,1.032-0.428,1.551-0.642c0.06-0.024,0.1-0.027,0.147,0.027    c0.838,0.97,1.594,2,2.147,3.164c0.113,0.236,0.211,0.48,0.315,0.72c0.263,0.616,0.229,1.237,0.042,1.863    c-0.075,0.243-0.182,0.471-0.35,0.661c-0.592,0.675-1.375,1.101-2.471,0.729c-0.564-0.193-0.968-0.584-1.224-1.12    c0,0.386,0.063,0.746,0.163,1.072c0.378,1.211,1.268,1.967,1.268,1.967l-0.219,0.163c0,0-1.229-1.32-4.113-1.085l-0.062-0.237    l-0.002-0.001c0,0,1.148-0.218,2.072-1.086c0.242-0.227,0.471-0.501,0.656-0.826c-0.183,0.096-0.359,0.194-0.546,0.261    C59.634,24.576,58.055,23.333,58.232,21.798 M69.583,56.216c0.707,2.276,2.379,3.695,2.379,3.695l-0.414,0.309    c0,0-2.308-2.48-7.728-2.04l-0.115-0.445l-0.004-0.002c0,0,2.156-0.41,3.893-2.041c0.458-0.428,0.883-0.94,1.235-1.553    c-0.345,0.184-0.679,0.364-1.029,0.492c-2.739,0.985-5.702-1.352-5.368-4.234c0.164-1.416,0.752-2.619,1.885-3.534    c1.427-1.149,2.996-2.058,4.65-2.813c0.956-0.436,1.943-0.805,2.914-1.205c0.109-0.046,0.188-0.053,0.279,0.052    c1.578,1.823,2.992,3.757,4.037,5.944c0.211,0.444,0.396,0.901,0.592,1.353c0.496,1.156,0.436,2.324,0.079,3.501    c-0.14,0.457-0.337,0.885-0.65,1.242c-1.114,1.266-2.589,2.066-4.646,1.367c-1.062-0.361-1.817-1.097-2.299-2.104    C69.271,54.928,69.391,55.602,69.583,56.216 M81.548,80.23c-0.089,0.754-0.399,1.395-1.004,1.884    c-0.758,0.61-1.593,1.094-2.476,1.495c-0.508,0.231-1.033,0.428-1.549,0.642c-0.061,0.024-0.101,0.028-0.149-0.026    c-0.841-0.972-1.593-1.998-2.147-3.164c-0.111-0.235-0.213-0.479-0.315-0.72c-0.265-0.616-0.23-1.237-0.042-1.862    c0.072-0.244,0.179-0.473,0.348-0.662c0.596-0.674,1.377-1.101,2.473-0.729c0.562,0.192,0.967,0.583,1.223,1.119    c0.002-0.387-0.062-0.745-0.163-1.072c-0.379-1.209-1.267-1.967-1.267-1.967l0.219-0.163c0,0,1.229,1.32,4.111,1.085l0.062,0.236    l0.002,0.002c0,0-1.146,0.218-2.071,1.087c-0.243,0.226-0.471,0.501-0.659,0.825c0.186-0.098,0.361-0.194,0.551-0.262    C80.146,77.454,81.727,78.698,81.548,80.23"/>
	</g>
</g>
<text x="0.0" y="117.5" font-size="5.0" font-weight="bold" font-family="Helvetica Neue, Helvetica, Arial-Unicode, Arial, Sans-serif" fill="#000000">Created by Rohith M S</text><text x="0.0" y="122.5" font-size="5.0" font-weight="bold" font-family="Helvetica Neue, Helvetica, Arial-Unicode, Arial, Sans-serif" fill="#000000">from the Noun Project</text></svg>